<svg xmlns="http://www.w3.org/2000/svg" viewBox="0 0 277.98 67.68"><defs><style>.a{fill:#a5640e;}.b,.l{fill:#fff;}.c,.t{fill:#350d02;}.d{fill:#699b08;}.e{fill:#ff5a34;}.f{fill:#ffb182;}.g{fill:#44bf00;}.h{fill:#d15400;}.i{fill:#d69f05;}.j{fill:#473434;}.j,.k{opacity:0.22;}.k,.m,.n,.o,.p{fill:#300b0b;}.l{opacity:0.46;}.m{opacity:0.36;}.n{opacity:0.39;}.o{opacity:0.38;}.p{opacity:0.48;}.q{fill:#4c1f1f;}.r,.s{fill:#353535;}.s{opacity:0.14;}.t{opacity:0.09;}</style></defs><path class="a" d="M15,19.18h6.63V66.71H15Zm3.92,41.35H31.79q5.07,0,7.39-1.93a6.67,6.67,0,0,0,2.32-5.42v-.1a9.42,9.42,0,0,0-.84-4.15A5.76,5.76,0,0,0,38,46.26a10,10,0,0,0-4.61-.93H18.91v-6H33.42A8,8,0,0,0,39,37.59a6.67,6.67,0,0,0,1.88-5.14,6.55,6.55,0,0,0-2.1-5.32q-2.09-1.77-6.27-1.77H18.91V19.18H33.72a17.07,17.07,0,0,1,7.71,1.57,10.42,10.42,0,0,1,4.64,4.45,14.3,14.3,0,0,1,1.54,6.86,11.19,11.19,0,0,1-1,4.59,9.56,9.56,0,0,1-2.89,3.67,10.94,10.94,0,0,1-4.82,2,10.39,10.39,0,0,1,5,2,10.64,10.64,0,0,1,3.21,4,12.36,12.36,0,0,1,1.11,5.23v.1a13.34,13.34,0,0,1-1.7,6.79,11.41,11.41,0,0,1-4.87,4.55,16.15,16.15,0,0,1-7.39,1.6H18.91Z" transform="translate(-14.99 -10.27)"/><path class="a" d="M58.2,19.18h6.67V66.71H58.2Zm3.23,0h27.3v6.35H61.43Zm0,20.76h23.7v6.34H61.43Zm0,20.43h27.3v6.34H61.43Z" transform="translate(-14.99 -10.27)"/><path class="a" d="M98.21,19.18h6l23.24,36.74-.78.85V19.18h6.6v47.5H127.2L104,30.49l.79-.85v37h-6.6Z" transform="translate(-14.99 -10.27)"/><path class="a" d="M141.15,19.18h33.54v6.35H141.15Zm13.44,3.89h6.67V66.71h-6.67Z" transform="translate(-14.99 -10.27)"/><path class="a" d="M186.88,65A14.8,14.8,0,0,1,181,58.88a19.5,19.5,0,0,1-2.08-9.2V36.21A19.53,19.53,0,0,1,181,27a14.77,14.77,0,0,1,5.86-6.14,18.69,18.69,0,0,1,17.52,0A14.86,14.86,0,0,1,210.27,27a19.65,19.65,0,0,1,2.07,9.2V49.68a19.62,19.62,0,0,1-2.07,9.2A14.88,14.88,0,0,1,204.4,65a18.77,18.77,0,0,1-17.52,0Zm13.94-5.72a9,9,0,0,0,3.47-3.76,12.52,12.52,0,0,0,1.22-5.64V36a12.44,12.44,0,0,0-1.22-5.63,8.9,8.9,0,0,0-3.47-3.76,10.75,10.75,0,0,0-10.36,0A8.82,8.82,0,0,0,187,30.35,12.32,12.32,0,0,0,185.77,36V49.91A12.39,12.39,0,0,0,187,55.55a8.93,8.93,0,0,0,3.46,3.76,10.82,10.82,0,0,0,10.36,0Z" transform="translate(-14.99 -10.27)"/><polygon class="b" points="208.87 21.35 232.24 12.73 250.75 48.22 227.24 58.45 207.8 22.4 208.87 21.35"/><path class="c" d="M221.25,37.88c0-1.27,0-2.54,0-3.81a5.53,5.53,0,0,1,3.52-5.42c11-5.36,22.55-9.42,33.86-14,3.13-1.27,6.29-2.46,9.44-3.69a7.22,7.22,0,0,1,4-.57,4.13,4.13,0,0,1,3,2.14q8.46,15.1,17,30.16a7.05,7.05,0,0,1,.61,5.7c-.53,1.85-1.19,3.68-1.63,5.56a5.85,5.85,0,0,1-3.66,4.12l-16.62,7.28-16.26,7.12c-3.86,1.69-7.7,3.4-11.58,5a4.83,4.83,0,0,1-4.6-.28,4,4,0,0,1-1.44-1.73q-6.54-12.78-13.07-25.55a17.36,17.36,0,0,1-2.34-6.39c-.17-1.88-.17-3.78-.25-5.67ZM250.7,31.4a3.23,3.23,0,0,0-1-2.23,1.87,1.87,0,0,0-1.39-.53,1.73,1.73,0,0,1-2.12-1.09,2.15,2.15,0,0,0-2.3-1.16,4,4,0,0,0-3.26,1.9,1.67,1.67,0,0,1-1.83.86c-.5-.08-1-.21-1.49-.29a4.08,4.08,0,0,0-4,1.68c-.93,1.61-.7,1.86-3,1.24a3.47,3.47,0,0,0-4.18,3.77,14,14,0,0,0,.93,3.07c.8,1.73,1.75,3.39,2.63,5.09q3.54,6.87,7,13.73c1.15,2.24,2.25,4.51,3.41,6.74.46.88,1,1.71,1.54,2.55a.93.93,0,0,0,1.22.4c.46-.18.92-.35,1.36-.55,3.45-1.61,6.91-3.19,10.34-4.83,2-1,4-2,6-3.09a5.86,5.86,0,0,0,1.38-1,2.36,2.36,0,0,0-.93-3.55c-1.07-.26-1.16-.4-1-1.48,0-.17.06-.34.1-.51a3.21,3.21,0,0,0-2-3.87l-.43-.19c-.78-.39-.86-.78-.47-1.56a3.69,3.69,0,0,0,.45-1.42,5.17,5.17,0,0,0-1.14-3.32,2.23,2.23,0,0,0-1.58-.9c-1.13-.16-1.32-.43-1-1.51a5.14,5.14,0,0,0,0-2.83,2.67,2.67,0,0,0-1.9-2,7.56,7.56,0,0,1-1.41-.57c-.61-.34-.69-.73-.43-1.38A12.3,12.3,0,0,0,250.7,31.4Zm19.39,6.84c-.94.06-1.87.1-2.81.18A7.42,7.42,0,0,0,262.09,41a3,3,0,0,0-.69,3.31,38.82,38.82,0,0,0,2.1,4c.54.92.93.93,2,.64a16.82,16.82,0,0,1,3.41-.71,7.39,7.39,0,0,1,6.52,2.61,2,2,0,0,0,2.31.84A39.2,39.2,0,0,0,281.89,50,2.12,2.12,0,0,0,283,47.32a9.71,9.71,0,0,0-3.15-5.42A13.13,13.13,0,0,0,270.09,38.24ZM253.67,22.77a4.4,4.4,0,0,0-2.64.9,1.11,1.11,0,0,0-.44,1.44c.49,1,1,1.94,1.58,2.86s1,1,1.84.3a4.89,4.89,0,0,1,2.51-1.14,4.75,4.75,0,0,1,3.55,1c.47.33.4.76-.14,1a6.69,6.69,0,0,1-1.19.3c-1.21.27-2.45.47-3.64.82-.72.21-.86.66-.62,1.38a4,4,0,0,0,1.66,2.13,1.26,1.26,0,0,0,1,.08c1.49-.57,3-1.13,4.42-1.83,1.6-.77,3.11-1.71,4.68-2.53a1.13,1.13,0,0,0,.68-1.29c-.37-1.87-1.16-3.18-3-3.53-.29-.06-.59-.08-.87-.15a1.55,1.55,0,0,1-1.3-1.39,6.2,6.2,0,0,0-.46-1.56,1.9,1.9,0,0,0-2.11-1.32A2.14,2.14,0,0,0,257,21.7c-.1.29-.17.6-.27.89-.24.69-.46.78-1.15.59S254.29,22.91,253.67,22.77ZM281,33.7a4.78,4.78,0,0,0-.93-2.87,1.58,1.58,0,0,0-2.67.26c-.11.21-.17.44-.27.65a1.07,1.07,0,0,1-1.72.55,9.67,9.67,0,0,1-1.14-.91,9.37,9.37,0,0,0-1-.79,1.79,1.79,0,0,0-2-.13,1.68,1.68,0,0,0-.62,1.83c.18,1.5,0,1.65-1.48,1.18l-.78-.27a12,12,0,0,0-1.63-.45,2.41,2.41,0,0,0-2.38.8,2.18,2.18,0,0,0-.05,2.39c.36.81.77,1,1.64.75a17,17,0,0,1,2.22-.52,16.23,16.23,0,0,1,8.6,1.1,1.37,1.37,0,0,0,1.58-.17c.64-.57,1.31-1.11,1.89-1.74A2.61,2.61,0,0,0,281,33.7Zm2.56,3.42a3.88,3.88,0,0,0-2.43.92c-.69.57-.68,1.12,0,1.7a16,16,0,0,1,4.91,6.5c.49,1.31,1.64,1.49,2.62.47a1.55,1.55,0,0,0,.44-1.6,5.2,5.2,0,0,0-.53-1.36c-1.3-2-2.62-4-4-5.91A3.26,3.26,0,0,0,283.58,37.12Zm-6.65-14a2.32,2.32,0,0,0-1.41-2,2.6,2.6,0,0,0-3,.45,11,11,0,0,0-2.83,5.16.66.66,0,0,0,0,.24c0,.63.29,1,.92.92a4.86,4.86,0,0,0,1.69-.4c1.22-.59,2.42-1.25,3.59-1.94A2.47,2.47,0,0,0,276.93,23.13Zm-11.2-2.77a8.66,8.66,0,0,0,.9,3.42,1.42,1.42,0,0,0,1.35.87,1.29,1.29,0,0,0,1.19-1,13.92,13.92,0,0,0,.59-2.37,11.82,11.82,0,0,0,.09-2.72,1.65,1.65,0,0,0-1.26-1.47,2,2,0,0,0-2,.65A3.56,3.56,0,0,0,265.73,20.36Z" transform="translate(-14.99 -10.27)"/><ellipse class="d" cx="252.41" cy="10.37" rx="2.89" ry="4.84"/><path class="e" d="M249.25,23.57S251.48,22,252.66,22s3.08,1.52,3.36.71.52-2.79,1.57-3,2.22-1.51,3.31-.57,1,3.51,1.59,4.13,3.72,1.42,4.91,3.81-.72,3.39-.72,3.39l-10.85,5S251.05,27.55,249.25,23.57Z" transform="translate(-14.99 -10.27)"/><path class="f" d="M263.16,49.28c-2.31-1.12-3.66-4.71-2.67-7.24.77-2,2.74-2.77,4.26-3.39a14.93,14.93,0,0,1,10.59,0c1.32.48,5.94,2.17,7.87,6.57.47,1.05,1.36,3.07.46,4.79-1.11,2.13-4.41,2.85-6.7,2s-2-1.63-4.12-2.62C269.31,47.83,266.31,50.82,263.16,49.28Z" transform="translate(-14.99 -10.27)"/><path class="g" d="M270.78,30a3,3,0,0,1,3.5.09c.88.72.78,1.83,1.42,1.92.37,0,.69-.27,1.14-.71,1-.94.86-1.55,1.42-1.8.76-.34,1.86.38,2.42,1a4.2,4.2,0,0,1,.9,3.46A5,5,0,0,1,277.05,38c-1.93.17-2.43-.93-4.83-1.32a11.77,11.77,0,0,0-3.88.09c-2.26.37-2.91,1-3.89.59a3,3,0,0,1-1.51-2.86,3.82,3.82,0,0,1,3.43-3.06c1.46-.13,2.26.84,3.18.31C270.28,31.34,270,30.59,270.78,30Z" transform="translate(-14.99 -10.27)"/><path class="h" d="M275.54,20.87a2.89,2.89,0,0,1,1.8,1.7,2.55,2.55,0,0,1,0,1.54c-.22.79-.76,1.37-2.26,2.36C272.7,28,271.27,29,270.3,28.41a2.07,2.07,0,0,1-.79-1.43c-.51-2.32,1.38-5.14,3.74-6A3.4,3.4,0,0,1,275.54,20.87Z" transform="translate(-14.99 -10.27)"/><path class="i" d="M283.28,36.45c1.7.06,2.81,2.13,5,6.25,1.66,3.09,1.61,3.9,1.28,4.41a2.51,2.51,0,0,1-2.77.71c-1.34-.48-1.25-1.91-2.6-4-2-3.13-4.3-3.34-4.17-4.88C280.14,37.65,281.83,36.4,283.28,36.45Z" transform="translate(-14.99 -10.27)"/><path class="j" d="M263.71,41.26c.73-2.15,6.13-2,6.38-2a16.1,16.1,0,0,1,3.85.69c1.56.41,4.45,1.17,4.43,2,0,.54-1.2,1.09-2.28,1.2-2.74.28-3.41-2.41-6.19-2.34a8.19,8.19,0,0,0-4.8,1.58c-.22.19-.72.66-1.07.51S263.5,41.87,263.71,41.26Z" transform="translate(-14.99 -10.27)"/><path class="k" d="M277.83,50.05c1.76.42,3.18-1.59,4-1a1.28,1.28,0,0,1,.22,1.51c-.66,1.19-3.61.8-5.37.26-2.13-.67-4.2-2.09-4-2.63.13-.36,1.37-.37,2.34-.06C276.62,48.66,276.63,49.76,277.83,50.05Z" transform="translate(-14.99 -10.27)"/><path class="l" d="M265.86,20.68c-.57.41-.23,1.91.35,2.87.27.46.67.92.79.85s-.33-.74-.38-1.83.32-1.62,0-1.89A.66.66,0,0,0,265.86,20.68Z" transform="translate(-14.99 -10.27)"/><path class="m" d="M267.13,36.1c.09.29,1.51.35,2.78-.16s1.28-1.07,2-1c1,0,1.11,1.4,2.65,2a3.93,3.93,0,0,0,2.18.13c1.08-.2,2.42-.86,2.37-1.46a.73.73,0,0,0-.48-.53c-.79-.33-1.39.88-2.71,1a4.51,4.51,0,0,1-2.37-.83c-1.32-.68-1.32-1-2-1.13s-1.31.22-2.56.85C268,35.37,267.06,35.85,267.13,36.1Z" transform="translate(-14.99 -10.27)"/><path class="n" d="M251.68,26.65c-1.76-3.47-1-3.29-.59-3.38s.66.92,2.64,2.22c.66.43.38,3.16,1.61,3.46,2.77.68,1.21,5.3,1.28,5.62C256.75,35.16,254.21,31.6,251.68,26.65Z" transform="translate(-14.99 -10.27)"/><path class="o" d="M258.85,20.53a4.24,4.24,0,0,1-1.05,2.24c-.69.74-1.43.91-1.39,1.05s1.8-.16,3.38-.92c1.09-.52,1.18-.78,1.2-.92.08-.55-.75-1.22-2.11-1.76" transform="translate(-14.99 -10.27)"/><path class="p" d="M276.39,21.94A2,2,0,0,1,277.3,24a2,2,0,0,1-.53,1c-.63.72-1.24.66-2.34,1.23-1.27.66-1.71,1.39-1.86,1.27s.29-1.6,1.45-2.44,2.21-.52,2.43-1.13c.27-.76-1.14-1.79-.88-2.12C275.7,21.68,276.15,21.82,276.39,21.94Z" transform="translate(-14.99 -10.27)"/><path class="q" d="M290.93,49.64,241.48,70.38l-.38,7,47.53-20.65s2.21-2.21,2-4a5.32,5.32,0,0,1,1-3.41" transform="translate(-14.99 -10.27)"/><ellipse class="r" cx="225.02" cy="24.05" rx="0.43" ry="1.04"/><ellipse class="r" cx="241.34" cy="45.01" rx="0.43" ry="1.04"/><ellipse class="r" cx="230.85" cy="22.4" rx="0.43" ry="1.04"/><ellipse class="r" cx="232.26" cy="38.22" rx="0.43" ry="1.04" transform="translate(68.05 209.98) rotate(-60)"/><ellipse class="r" cx="228.86" cy="36.11" rx="0.43" ry="1.04"/><ellipse class="r" cx="228.86" cy="36.11" rx="0.43" ry="1.04"/><ellipse class="r" cx="220.82" cy="35.06" rx="0.43" ry="1.04"/><ellipse class="r" cx="227.24" cy="49.61" rx="0.43" ry="1.04"/><ellipse class="r" cx="228.86" cy="36.11" rx="0.43" ry="1.04"/><ellipse class="r" cx="228.55" cy="28.68" rx="0.43" ry="1.04"/><ellipse class="r" cx="233.54" cy="45.6" rx="0.43" ry="1.04"/><ellipse class="r" cx="237.67" cy="34.77" rx="0.43" ry="1.04"/><ellipse class="s" cx="240.99" cy="39.02" rx="0.43" ry="1.04" transform="translate(-13.24 77.36) rotate(-20.68)"/><ellipse class="s" cx="239.23" cy="46.78" rx="1.04" ry="0.43" transform="translate(36.48 191.95) rotate(-50.68)"/><ellipse class="s" cx="244.79" cy="52.68" rx="1.04" ry="0.43" transform="translate(33.95 198.41) rotate(-50.68)"/><ellipse class="s" cx="249.25" cy="46.73" rx="1.04" ry="0.43" transform="translate(40.18 199.68) rotate(-50.68)"/><ellipse class="s" cx="252.45" cy="57.23" rx="1.04" ry="0.43" transform="translate(33.23 206) rotate(-50.68)"/><ellipse class="s" cx="243.62" cy="29.61" rx="0.43" ry="1.04" transform="translate(-16.58 29.23) rotate(-9.24)"/><ellipse class="s" cx="240.35" cy="36.86" rx="1.04" ry="0.43" transform="translate(15.89 150.08) rotate(-39.24)"/><ellipse class="s" cx="244.63" cy="43.75" rx="1.04" ry="0.43" transform="translate(12.5 154.34) rotate(-39.24)"/><ellipse class="s" cx="250.18" cy="38.8" rx="1.04" ry="0.43" transform="translate(16.88 156.74) rotate(-39.24)"/><ellipse class="s" cx="251.24" cy="49.73" rx="1.04" ry="0.43" transform="translate(10.21 159.86) rotate(-39.24)"/><path class="q" d="M221.91,44,238,75.24s.62,1.52.95.71a60.56,60.56,0,0,0,.62-6.82Z" transform="translate(-14.99 -10.27)"/><path class="m" d="M289.23,46h0a1.66,1.66,0,0,1-.59,1.31,1.45,1.45,0,0,1-.94.26,2.34,2.34,0,0,1-1.69-1c-1.4-1.68-.58-3.08-1.83-4.13-.68-.58-1.51-.67-1.49-1a.71.71,0,0,1,.7-.5c.94,0,1.89,2.12,2.29,3.57.27,1,.25,1.59.77,2a2.24,2.24,0,0,0,1.83.2" transform="translate(-14.99 -10.27)"/><path class="t" d="M229.17,34.32s-.95-.51-1.33.76,1,3.58,1,4.16S234.6,51.81,235,52.41s5.46,10.27,5.46,10.27a4.16,4.16,0,0,0,2.67,1.51c1.84.32,2.57-.06,5-1.32s3-3.16,2.37-3.48-7.63-4.92-8.25-5.55-2.4-.13-4.4-3.79-5.43-7.71-5.56-8.84.63-5.33.57-5.64S229.17,34.32,229.17,34.32Z" transform="translate(-14.99 -10.27)"/></svg>