<?xml version="1.0" encoding="UTF-8" standalone="no"?>
<!-- Created with Inkscape (http://www.inkscape.org/) -->

<svg
   width="177.68643mm"
   height="34.646626mm"
   viewBox="0 0 177.68643 34.646626"
   version="1.1"
   id="svg1"
   xmlns="http://www.w3.org/2000/svg"
   xmlns:svg="http://www.w3.org/2000/svg">
  <defs
     id="defs1">
    <clipPath
       clipPathUnits="userSpaceOnUse"
       id="clipPath15">
      <path
         d="M -7.7526999,43.488801 H 495.92531 V -54.722201 H -7.7526999 Z"
         id="path15" />
    </clipPath>
    <clipPath
       clipPathUnits="userSpaceOnUse"
       id="clipPath24">
      <path
         d="M -44.328101,-0.029 H 459.34991 V -98.240002 H -44.328101 Z"
         id="path24" />
    </clipPath>
    <clipPath
       clipPathUnits="userSpaceOnUse"
       id="clipPath27">
      <path
         d="M -53.470102,13.4939 H 450.20791 V -84.717102 H -53.470102 Z"
         id="path27" />
    </clipPath>
    <clipPath
       clipPathUnits="userSpaceOnUse"
       id="clipPath28">
      <path
         d="M -349.28811,-84.929302 H 154.3899 V 13.2817 h -503.67801 z"
         id="path28" />
    </clipPath>
  </defs>
  <g
     id="layer1"
     transform="translate(-17.301412,-115.88749)">
    <g
       id="g28"
       transform="matrix(0.26458333,0,0,0.26458333,17.301413,115.88736)">
      <text
         id="text1"
         xml:space="preserve"
         transform="matrix(1.3333333,0,0,1.3333333,146.55733,113.02733)"><tspan
           id="tspan1"
           style="font-variant:normal;font-weight:500;font-stretch:normal;font-size:83px;font-family:Futura;writing-mode:lr-tb;fill:#231f20;fill-opacity:1;fill-rule:nonzero;stroke:none"
           x="0"
           y="0">BGPC</tspan></text>
      <path
         id="path1"
         d="M 0,0 C 0.359,-0.28 0.697,-0.581 1.018,-0.896 1.5,-1.37 1.945,-1.877 2.365,-2.393 2.786,-2.91 3.184,-3.436 3.571,-3.95 3.802,-4.255 4.028,-4.555 4.254,-4.847 4.48,-5.138 4.706,-5.421 4.934,-5.692 5.506,-6.368 6.096,-6.969 6.76,-7.44 c 0.265,-0.188 0.542,-0.356 0.835,-0.499 0.73,-0.358 1.556,-0.563 2.53,-0.563 0.975,0 1.8,0.205 2.531,0.563 0.292,0.143 0.569,0.311 0.835,0.499 0.664,0.471 1.254,1.072 1.825,1.748 0.229,0.271 0.455,0.554 0.681,0.845 0.226,0.292 0.452,0.592 0.683,0.897 0.387,0.514 0.785,1.04 1.206,1.557 0.421,0.516 0.865,1.023 1.347,1.497 0.321,0.315 0.66,0.616 1.018,0.896 1.435,1.119 3.203,1.895 5.567,1.895 2.24,0 3.941,-0.701 5.335,-1.727 0.16,-0.117 0.316,-0.239 0.468,-0.364 0.271,-0.224 0.533,-0.456 0.782,-0.7 0.482,-0.474 0.927,-0.981 1.347,-1.497 0.421,-0.517 0.819,-1.043 1.206,-1.557 0.231,-0.305 0.457,-0.605 0.683,-0.897 0.226,-0.291 0.452,-0.574 0.681,-0.845 0.228,-0.271 0.46,-0.529 0.698,-0.772 0.357,-0.364 0.729,-0.693 1.127,-0.976 0.266,-0.188 0.543,-0.356 0.835,-0.499 0.731,-0.358 1.556,-0.563 2.531,-0.563 1.755,0 3.026,0.667 4.131,1.686 0.245,0.226 0.483,0.47 0.715,0.728 0.349,0.386 0.687,0.804 1.026,1.241 0.226,0.292 0.453,0.592 0.683,0.897 0.646,0.856 1.319,1.748 2.084,2.57 1.681,1.807 3.805,3.275 7.055,3.275 1.773,0 3.21,-0.437 4.424,-1.127 0.607,-0.345 1.157,-0.754 1.666,-1.203 0.169,-0.15 0.334,-0.304 0.495,-0.462 0.321,-0.315 0.626,-0.646 0.918,-0.984 0.292,-0.338 0.572,-0.684 0.843,-1.031 0.271,-0.347 0.534,-0.695 0.793,-1.038 0.071,-0.095 0.143,-0.189 0.214,-0.284 0.645,2.003 1.291,4.005 1.936,6.008 0.594,1.845 1.185,3.69 1.793,5.583 C 70.096,7.332 69.954,7.324 69.815,7.294 65.622,6.395 61.431,5.492 57.237,4.595 56.087,4.349 55.465,4.683 55.006,5.771 54.32,7.395 53.639,9.02 52.955,10.644 52.825,10.952 52.687,11.257 52.528,11.619 52.34,11.418 52.197,11.267 52.056,11.114 48.82,7.605 45.589,4.09 42.339,0.594 42.053,0.286 41.667,-0.003 41.275,-0.12 c -1.002,-0.298 -2.219,0.561 -1.904,2.173 1.094,5.605 2.171,11.212 3.247,16.82 -0.549,-0.308 -1.046,-0.703 -1.515,-1.161 -0.469,-0.457 -0.911,-0.976 -1.35,-1.532 -0.293,-0.371 -0.584,-0.758 -0.882,-1.154 -0.645,-0.857 -1.317,-1.75 -2.081,-2.573 -0.305,-0.329 -0.625,-0.647 -0.964,-0.947 -0.169,-0.15 -0.343,-0.295 -0.522,-0.435 -0.359,-0.28 -0.738,-0.539 -1.142,-0.77 C 32.949,9.609 31.512,9.17 29.739,9.167 h -0.017 c -1.105,0 -2.08,0.17 -2.952,0.466 -0.872,0.295 -1.64,0.717 -2.333,1.219 -0.138,0.1 -0.273,0.204 -0.406,0.311 -0.265,0.213 -0.519,0.438 -0.763,0.671 -0.366,0.35 -0.71,0.72 -1.039,1.099 -0.438,0.507 -0.848,1.03 -1.244,1.549 -0.132,0.173 -0.262,0.345 -0.392,0.516 -1.383,1.827 -2.625,3.468 -4.472,4.174 -0.154,0.059 -0.312,0.112 -0.475,0.157 -0.488,0.136 -1.018,0.211 -1.602,0.211 h -0.01 C 12.764,19.538 11.747,19.185 10.865,18.603 10.512,18.37 10.18,18.101 9.861,17.802 9.702,17.653 9.547,17.497 9.393,17.334 10.002,14.165 10.61,10.997 11.218,7.828 11.609,5.79 12.012,3.754 12.379,1.712 12.553,0.745 11.873,-0.092 10.924,-0.172 10.258,-0.227 9.798,0.116 9.37,0.582 6.625,3.569 3.874,6.551 1.127,9.537 0.608,10.1 0.09,10.663 -0.428,11.226 -0.545,11.353 -0.596,11.54 -0.678,11.699 -0.896,11.425 -0.952,11.308 -1.003,11.188 -1.293,10.501 -1.583,9.813 -1.872,9.126 -2.343,8.009 -2.813,6.891 -3.285,5.775 -3.746,4.683 -4.366,4.349 -5.515,4.595 -8.917,5.322 -12.318,6.059 -15.72,6.79 c -0.929,0.199 -1.859,0.392 -2.845,0.6 0.068,-0.229 0.111,-0.383 0.159,-0.534 1.181,-3.673 2.362,-7.345 3.542,-11.018 0.054,0.071 0.107,0.141 0.161,0.212 1.034,1.37 2.136,2.831 3.571,3.95 1.435,1.119 3.202,1.895 5.566,1.895 C -3.203,1.895 -1.435,1.119 0,0"
         style="fill:#1a517a;fill-opacity:1;fill-rule:nonzero;stroke:none"
         transform="matrix(1.3333333,0,0,-1.3333333,26.172667,50.493867)" />
      <path
         id="path2"
         d="M 0,0 C -0.152,0.126 -0.308,0.247 -0.468,0.365 -0.308,0.247 -0.152,0.126 0,0"
         style="fill:#eb2027;fill-opacity:1;fill-rule:nonzero;stroke:none"
         transform="matrix(1.3333333,0,0,-1.3333333,68.333867,50.755467)" />
      <path
         id="path3"
         d="M 0,0 C -0.238,0.243 -0.47,0.501 -0.698,0.772 -0.47,0.501 -0.238,0.243 0,0"
         style="fill:#eb2027;fill-opacity:1;fill-rule:nonzero;stroke:none"
         transform="matrix(1.3333333,0,0,-1.3333333,75.53,59.112533)" />
      <path
         id="path4"
         d="M 0,0 C -0.438,0.506 -0.848,1.03 -1.244,1.548 -0.848,1.03 -0.438,0.506 0,0"
         style="fill:#eb2027;fill-opacity:1;fill-rule:nonzero;stroke:none"
         transform="matrix(1.3333333,0,0,-1.3333333,55.811333,33.2492)" />
      <path
         id="path5"
         d="M 0,0 C -0.872,0.296 -1.64,0.717 -2.332,1.219 -1.64,0.717 -0.872,0.296 0,0"
         style="fill:#eb2027;fill-opacity:1;fill-rule:nonzero;stroke:none"
         transform="matrix(1.3333333,0,0,-1.3333333,61.8656,37.650133)" />
      <path
         id="path6"
         d="M 0,0 C -0.358,-0.28 -0.738,-0.539 -1.142,-0.77 -0.738,-0.539 -0.358,-0.28 0,0"
         style="fill:#eb2027;fill-opacity:1;fill-rule:nonzero;stroke:none"
         transform="matrix(1.3333333,0,0,-1.3333333,73.244267,35.732933)" />
      <path
         id="path7"
         d="M 0,0 C -0.265,0.213 -0.519,0.438 -0.763,0.671 -0.519,0.438 -0.265,0.213 0,0"
         style="fill:#eb2027;fill-opacity:1;fill-rule:nonzero;stroke:none"
         transform="matrix(1.3333333,0,0,-1.3333333,58.214133,35.610267)" />
      <path
         id="path8"
         d="M 0,0 C 0.469,0.457 0.966,0.852 1.515,1.161 0.966,0.852 0.469,0.457 0,0"
         style="fill:#eb2027;fill-opacity:1;fill-rule:nonzero;stroke:none"
         transform="matrix(1.3333333,0,0,-1.3333333,80.976267,26.877333)" />
      <path
         id="path9"
         d="M 0,0 C 0.763,0.823 1.435,1.716 2.08,2.573 2.379,2.969 2.67,3.356 2.963,3.727 2.67,3.356 2.378,2.969 2.08,2.573 1.435,1.716 0.763,0.823 0,0"
         style="fill:#eb2027;fill-opacity:1;fill-rule:nonzero;stroke:none"
         transform="matrix(1.3333333,0,0,-1.3333333,75.226267,33.8896)" />
      <path
         id="path10"
         d="m 0,0 c -0.843,2.35 -1.688,4.7 -2.531,7.051 -0.252,0.711 -0.499,1.155 -0.78,1.543 -0.222,0.278 -0.44,0.544 -0.657,0.804 -0.105,0.121 -0.216,0.253 -0.332,0.394 -0.866,0.888 -1.613,1.874 -2.326,2.818 -1.844,2.443 -3.436,4.553 -6.555,4.553 -3.118,0 -4.711,-2.11 -6.554,-4.553 -2.068,-2.74 -4.411,-5.845 -9.139,-5.845 -4.727,0 -7.07,3.105 -9.137,5.845 -1.844,2.443 -3.435,4.553 -6.554,4.553 -3.118,0 -4.71,-2.11 -6.553,-4.553 -0.074,-0.098 -0.15,-0.198 -0.225,-0.297 1.184,-0.968 2.368,-1.937 3.552,-2.906 0.896,-0.732 1.051,-1.274 0.661,-2.36 -0.843,-2.351 -1.688,-4.701 -2.531,-7.051 -0.064,-0.179 -0.12,-0.36 -0.18,-0.543 0.074,-0.023 0.106,-0.044 0.133,-0.039 4.111,0.73 8.221,1.463 12.333,2.192 2.916,0.517 5.83,1.047 8.751,1.536 1.482,0.248 2.758,-0.941 2.702,-2.473 -0.048,-1.292 -0.129,-2.582 -0.196,-3.873 -0.216,-4.152 -0.429,-8.303 -0.649,-12.454 -0.092,-1.732 -0.199,-3.463 -0.299,-5.194 h 4.473 c -0.013,0.097 -0.032,0.194 -0.037,0.292 -0.165,3.154 -0.326,6.309 -0.491,9.463 -0.205,3.922 -0.424,7.844 -0.615,11.767 -0.074,1.529 1.213,2.69 2.701,2.477 0.625,-0.09 1.245,-0.207 1.867,-0.317 4.908,-0.871 9.816,-1.744 14.724,-2.615 1.524,-0.27 3.049,-0.537 4.645,-0.818 C 0.12,-0.36 0.064,-0.179 0,0"
         style="fill:#231f20;fill-opacity:1;fill-rule:nonzero;stroke:none"
         transform="matrix(1.3333333,0,0,-1.3333333,93.7584,103.14573)" />
      <path
         id="path11"
         d="m 0,0 c -1.402,-1.044 -3.116,-1.76 -5.381,-1.76 -0.502,0 -0.973,0.042 -1.425,0.108 v -7.721 c 3.079,-0.885 4.911,-3.302 6.562,-5.491 0.082,-0.109 0.163,-0.215 0.244,-0.322 z"
         style="fill:#bbbdbf;fill-opacity:1;fill-rule:nonzero;stroke:none"
         transform="matrix(1.3333333,0,0,-1.3333333,46.846667,63.8604)" />
      <path
         id="path12"
         d="m 0,0 c -0.804,0.456 -1.72,0.727 -2.831,0.727 -1.673,0 -2.905,-0.61 -3.974,-1.551 v -16.967 c 2.12,-1.734 4.24,-3.469 6.361,-5.204 0.055,0.074 0.11,0.146 0.166,0.221 0.092,0.121 0.185,0.244 0.278,0.367 z"
         style="fill:#bbbdbf;fill-opacity:1;fill-rule:nonzero;stroke:none"
         transform="matrix(1.3333333,0,0,-1.3333333,22.526267,53.313333)" />
      <path
         id="path13"
         d="M 0,0 C 2.252,1.842 4.503,3.684 6.754,5.526 V 22.575 C 5.687,23.511 4.457,24.118 2.787,24.118 1.696,24.118 0.794,23.856 0,23.415 Z"
         style="fill:#bbbdbf;fill-opacity:1;fill-rule:nonzero;stroke:none"
         transform="matrix(1.3333333,0,0,-1.3333333,98.729333,84.501333)" />
      <path
         id="path14"
         d="m 0,0 c -0.081,-0.106 -0.161,-0.213 -0.243,-0.321 -1.814,-2.405 -3.843,-5.091 -7.51,-5.711 2.584,-2.114 5.169,-4.229 7.753,-6.343 z"
         style="fill:#bbbdbf;fill-opacity:1;fill-rule:nonzero;stroke:none"
         transform="matrix(1.3333333,0,0,-1.3333333,10.336933,57.9856)"
         clip-path="url(#clipPath15)" />
      <path
         id="path16"
         d="m 0,0 c -2.387,1.097 -3.948,3.163 -5.376,5.056 -0.468,0.621 -0.921,1.219 -1.386,1.768 v -17.607 c 1.597,1.55 3.605,2.734 6.523,2.734 0.082,0 0.158,-0.008 0.239,-0.01 z"
         style="fill:#bbbdbf;fill-opacity:1;fill-rule:nonzero;stroke:none"
         transform="matrix(1.3333333,0,0,-1.3333333,34.6572,65.154933)" />
      <path
         id="path17"
         d="m 0,0 c -0.084,0.112 -0.168,0.222 -0.251,0.332 v -12.461 c 2.609,2.135 5.218,4.269 7.827,6.404 0.002,0.002 0.004,0.003 0.006,0.005 C 3.871,-5.122 1.826,-2.42 0,0"
         style="fill:#bbbdbf;fill-opacity:1;fill-rule:nonzero;stroke:none"
         transform="matrix(1.3333333,0,0,-1.3333333,111.18573,58.4136)" />
      <path
         id="path18"
         d="M 0,0 C -0.481,-0.563 -0.948,-1.179 -1.431,-1.82 -2.859,-3.712 -4.42,-5.777 -6.805,-6.875 v -12.14 c 0.482,-0.579 0.934,-1.174 1.371,-1.754 1.207,-1.599 2.308,-3.051 3.798,-3.866 0.546,0.446 1.091,0.892 1.636,1.338 z"
         style="fill:#bbbdbf;fill-opacity:1;fill-rule:nonzero;stroke:none"
         transform="matrix(1.3333333,0,0,-1.3333333,95.613867,55.987333)" />
      <path
         id="path19"
         d="m 0,0 c -2.408,-0.443 -3.826,-2.321 -5.435,-4.453 -0.453,-0.6 -0.92,-1.216 -1.421,-1.814 v -20.138 c 1.068,-0.94 2.3,-1.55 3.973,-1.55 1.135,0 2.067,0.282 2.883,0.755 z"
         style="fill:#bbbdbf;fill-opacity:1;fill-rule:nonzero;stroke:none"
         transform="matrix(1.3333333,0,0,-1.3333333,59.104133,52.476133)" />
      <path
         id="path20"
         d="m 0,0 c -0.452,-0.066 -0.924,-0.108 -1.428,-0.108 -2.24,0 -3.94,0.701 -5.334,1.725 v -9.081 c 0.424,0.057 0.863,0.096 1.332,0.096 2.291,0 4.019,-0.732 5.43,-1.796 z"
         style="fill:#bbbdbf;fill-opacity:1;fill-rule:nonzero;stroke:none"
         transform="matrix(1.3333333,0,0,-1.3333333,83.424533,66.062267)" />
      <path
         id="path21"
         d="m 0,0 c -0.519,0.616 -1.001,1.251 -1.468,1.87 -1.587,2.102 -2.99,3.954 -5.337,4.43 v -25.087 c 0.447,0.532 0.883,1.109 1.335,1.707 1.446,1.917 3.031,4.009 5.47,5.095 z"
         style="fill:#bbbdbf;fill-opacity:1;fill-rule:nonzero;stroke:none"
         transform="matrix(1.3333333,0,0,-1.3333333,71.293467,60.906267)" />
      <path
         id="path22"
         d="m 0,0 c -2.095,-1.222 -4.19,-2.445 -6.285,-3.668 -0.167,-0.097 -0.325,-0.176 -0.477,-0.24 v -6.366 c 0.036,0.047 0.071,0.094 0.107,0.142 1.666,2.213 3.52,4.653 6.655,5.521 z"
         style="fill:#929496;fill-opacity:1;fill-rule:nonzero;stroke:none"
         transform="matrix(1.3333333,0,0,-1.3333333,83.424533,14.3008)" />
      <path
         id="path23"
         d="m 0,0 c -2.285,-4.532 -4.57,-9.064 -6.856,-13.596 v -2.286 c 2.36,-1.099 3.911,-3.149 5.332,-5.026 0.514,-0.68 1.01,-1.332 1.524,-1.921 z"
         style="fill:#929496;fill-opacity:1;fill-rule:nonzero;stroke:none"
         transform="matrix(1.3333333,0,0,-1.3333333,59.104133,-0.03813333)"
         clip-path="url(#clipPath24)" />
      <path
         id="path25"
         d="m 0,0 c -0.117,0.051 -0.234,0.107 -0.358,0.179 -2.15,1.254 -4.298,2.511 -6.448,3.767 v -6.109 c 1.392,1.026 3.091,1.729 5.329,1.733 h 0.017 c 0.516,0 0.998,-0.043 1.46,-0.113 z"
         style="fill:#929496;fill-opacity:1;fill-rule:nonzero;stroke:none"
         transform="matrix(1.3333333,0,0,-1.3333333,46.846667,19.491333)" />
      <path
         id="path26"
         d="m 0,0 c -2.269,4.498 -4.537,8.996 -6.805,13.494 v -24.77 c 0.77,-0.409 1.642,-0.651 2.688,-0.651 h 0.01 c 1.744,0.003 3.009,0.664 4.107,1.673 z"
         style="fill:#929496;fill-opacity:1;fill-rule:nonzero;stroke:none"
         transform="matrix(1.3333333,0,0,-1.3333333,71.293467,17.9924)"
         clip-path="url(#clipPath27)" />
      <text
         id="text27"
         xml:space="preserve"
         transform="matrix(1.3333333,0,0,1.3333333,465.71747,63.906267)"><tspan
           id="tspan27"
           style="font-variant:normal;font-weight:500;font-stretch:normal;font-size:35px;font-family:Futura;writing-mode:lr-tb;fill:#231f20;fill-opacity:1;fill-rule:nonzero;stroke:none"
           x="0"
           y="0">Portail de</tspan></text>
      <text
         id="text28"
         xml:space="preserve"
         transform="matrix(1.3333333,0,0,1.3333333,465.71747,113.2396)"
         clip-path="url(#clipPath28)"><tspan
           id="tspan28"
           style="font-variant:normal;font-weight:500;font-stretch:normal;font-size:35px;font-family:Futura;writing-mode:lr-tb;fill:#231f20;fill-opacity:1;fill-rule:nonzero;stroke:none"
           x="0"
           y="0">recherche</tspan></text>
    </g>
  </g>
</svg>
